HIERARCHY
ROOT Hips
{
	OFFSET 0.00000 0.00000 0.00000
	CHANNELS 6 Xposition Yposition Zposition Zrotation Yrotation Xrotation 
	JOINT RightUpLegDummy
	{
		OFFSET 0 0 0
		CHANNELS 3 Zrotation Yrotation Xrotation
		JOINT RightUpLeg
		{
			OFFSET -3.52197 -3.41223 0.04002
			CHANNELS 3 Zrotation Yrotation Xrotation
			JOINT RightLeg
			{
				OFFSET 0.00006 -17.42390 1.60435
				CHANNELS 3 Zrotation Yrotation Xrotation
				JOINT RightFoot
				{
					OFFSET 0.06153 -16.50078 -1.63901
					CHANNELS 3 Zrotation Yrotation Xrotation
					JOINT RightToes
					{
						OFFSET 0.00298 -1.73825 3.34613
						CHANNELS 3 Zrotation Yrotation Xrotation
						End Site
						{
							OFFSET 0.00480 -0.05416 3.85043
						}
					}
				}
			}
		}
	}
	JOINT SpineDummy
	{
		OFFSET 0 0 0
		CHANNELS 3 Zrotation Yrotation Xrotation
		JOINT Spine
		{
			OFFSET 0.00000 4.68130 0.00000
			CHANNELS 3 Zrotation Yrotation Xrotation
			JOINT Spine1
			{
				OFFSET -0.00000 10.10138 0.05002
				CHANNELS 3 Zrotation Yrotation Xrotation
				JOINT HEadDummy
				{
					OFFSET 0 0 0
					CHANNELS 3 Zrotation Yrotation Xrotation
					JOINT Head
					{
						OFFSET -0.00000 3.43865 0.00438
						CHANNELS 3 Zrotation Yrotation Xrotation
						End Site
						{
							OFFSET -0.11417 5.02924 0.98962
						}
					}
				}
				JOINT LeftShoulder1Dummy
				{
					OFFSET 0 0 0
					CHANNELS 3 Zrotation Yrotation Xrotation
					JOINT LeftShoulder1
					{
						OFFSET 3.53937 -0.14262 -0.08662
						CHANNELS 3 Zrotation Yrotation Xrotation
						JOINT LeftArm
						{
							OFFSET 4.04833 -0.00133 0.12681
							CHANNELS 3 Zrotation Yrotation Xrotation
							JOINT LeftForeArm
							{
								OFFSET 10.33880 -0.01036 -0.55515
								CHANNELS 3 Zrotation Yrotation Xrotation
								JOINT LeftHand
								{
									OFFSET 8.69677 0.07543 0.40060
									CHANNELS 3 Zrotation Yrotation Xrotation
									End Site
									{
										OFFSET 5.28377 -0.21905 0.59205
									}
								}
							}
						}
					}
				}
				JOINT RightShoulderDummy
				{
					OFFSET 0 0 0
					CHANNELS 3 Zrotation Yrotation Xrotation
					JOINT RightShoulder
					{
						OFFSET -3.53937 -0.14262 -0.08660
						CHANNELS 3 Zrotation Yrotation Xrotation
						JOINT RightArm
						{
							OFFSET -4.04833 -0.00133 0.12683
							CHANNELS 3 Zrotation Yrotation Xrotation
							JOINT RightForeArm
							{
								OFFSET -10.37987 -0.01039 -0.55511
								CHANNELS 3 Zrotation Yrotation Xrotation
								JOINT RightHand
								{
									OFFSET -8.67398 0.07538 0.40058
									CHANNELS 3 Zrotation Yrotation Xrotation
									End Site
									{
										OFFSET -5.24810 -0.21916 0.59204
									}
								}
							}
						}
					}
				}
			}
		}
	}
	JOINT LeftUpLegDummy
	{
		OFFSET 0 0 0
		CHANNELS 3 Zrotation Yrotation Xrotation
		JOINT LeftUpLeg
		{
			OFFSET 3.52197 -3.41223 0.04002
			CHANNELS 3 Zrotation Yrotation Xrotation
			JOINT LeftLeg
			{
				OFFSET -0.00012 -17.42399 1.60337
				CHANNELS 3 Zrotation Yrotation Xrotation
				JOINT LeftFoot
				{
					OFFSET -0.09972 -16.50070 -1.63802
					CHANNELS 3 Zrotation Yrotation Xrotation
					JOINT LeftToes
					{
						OFFSET -0.01575 -1.73823 3.34611
						CHANNELS 3 Zrotation Yrotation Xrotation
						End Site
						{
							OFFSET 0.03150 -0.01868 3.85031
						}
					}
				}
			}
		}
	}
}
MOTION
Frames: 11
Frame Time: 0.033333
-0.4009 40.1174 -5.1376 -2.7685 -5.5494 -1.7831 0.0000 0.0000 0.0000 0.3783 -1.9664 0.8600 -1.9295 -9.0575 2.1285 1.6173 -0.1825 -0.3966 0.0000 -0.0000 0.0000 0.0000 0.0000 0.0000 -0.3472 -0.7747 2.4168 4.6718 -1.6726 0.1222 -0.0000 0.0000 -0.0000 3.4981 -1.8730 0.0921 -0.0000 0.0000 -0.0000 -34.2238 -2.7517 2.5160 -45.0318 -15.3197 -17.1495 -10.4739 5.0800 49.7264 14.2453 -4.0120 -1.1243 -0.0000 0.0000 -0.0000 34.7780 5.1539 3.5337 40.1034 4.9963 -17.0960 10.5606 0.8962 22.4200 -11.6456 2.2115 -0.7446 0.0000 0.0000 0.0000 5.2617 3.7565 3.0270 4.0965 15.5553 6.7795 -2.5506 0.1531 -5.4927 0.0000 0.0000 -0.0000
-0.3972 40.1174 -5.1401 -2.7276 -5.5824 -1.8426 0.0000 0.0000 0.0000 0.3145 -2.0164 0.8956 -1.9085 -8.9733 2.1659 1.6148 -0.1823 -0.4155 0.0000 -0.0000 0.0000 0.0000 0.0000 0.0000 -0.3799 -0.7805 2.4557 4.6202 -1.6687 0.1424 -0.0000 0.0000 -0.0000 3.3918 -1.8984 0.1385 -0.0000 0.0000 -0.0000 -34.1793 -2.7519 2.5160 -45.0305 -15.2404 -17.0974 -10.5244 5.0850 49.5368 14.2640 -3.9880 -1.1212 -0.0000 0.0000 -0.0000 34.8262 5.1634 3.5337 40.0916 5.0093 -17.0020 10.6000 0.9228 22.2890 -11.8072 1.9058 -0.7266 0.0000 0.0000 0.0000 5.2049 3.7253 3.1230 4.1013 15.6206 6.7147 -2.5649 0.1540 -5.4663 0.0000 0.0000 -0.0000
-0.3926 40.1174 -5.1515 -2.6938 -5.6440 -1.8956 0.0000 0.0000 0.0000 0.2626 -2.0537 0.8996 -1.8907 -8.8685 2.2152 1.6053 -0.1816 -0.4306 0.0000 -0.0000 0.0000 0.0000 0.0000 0.0000 -0.4094 -0.7572 2.5011 4.5618 -1.6331 0.1493 -0.0000 0.0000 -0.0000 3.2601 -2.1190 0.2301 -0.0000 0.0000 -0.0000 -34.1361 -2.7777 2.5230 -45.0090 -15.1156 -16.9427 -10.6452 5.0918 49.2597 14.2699 -3.8551 -1.1071 -0.0000 0.0000 -0.0000 34.8598 5.1712 3.5337 40.0804 4.9829 -16.9476 10.6093 0.8906 22.4788 -11.8443 1.7482 -0.7140 0.0000 0.0000 0.0000 5.1523 3.6956 3.1893 4.1208 15.7118 6.6788 -2.5913 0.1557 -5.4474 0.0000 0.0000 -0.0000
-0.3887 40.1174 -5.1674 -2.6792 -5.7352 -1.9376 0.0000 0.0000 0.0000 0.2438 -2.0615 0.8862 -1.8858 -8.7642 2.2575 1.5990 -0.1812 -0.4323 0.0000 -0.0000 0.0000 0.0000 0.0000 0.0000 -0.4124 -0.6973 2.5548 4.5194 -1.5631 0.1390 -0.0000 0.0000 -0.0000 3.2755 -2.5327 0.2973 -0.0000 0.0000 -0.0000 -34.1511 -2.8284 2.5443 -44.9259 -14.9834 -16.7570 -10.7828 5.0972 49.0195 14.2468 -3.6590 -1.0825 -0.0000 0.0000 -0.0000 34.8343 5.1734 3.5337 40.0960 4.9373 -17.0209 10.5563 0.8054 22.9739 -11.6926 1.9924 -0.7273 0.0000 0.0000 0.0000 5.1203 3.6753 3.2278 4.1543 15.8179 6.6773 -2.6129 0.1571 -5.4408 0.0000 0.0000 -0.0000
-0.3841 40.1174 -5.1780 -2.6624 -5.8512 -1.9983 0.0000 0.0000 0.0000 0.2205 -2.0739 0.9055 -1.8782 -8.6407 2.2879 1.5964 -0.1810 -0.4270 0.0000 -0.0000 0.0000 0.0000 0.0000 0.0000 -0.4052 -0.6431 2.5564 4.4817 -1.5040 0.2256 -0.0000 0.0000 -0.0000 3.3765 -2.8336 0.2767 -0.0000 0.0000 -0.0000 -34.1958 -2.8611 2.5603 -44.8160 -14.9375 -16.7230 -10.8257 5.0995 48.9213 14.2151 -3.5872 -1.0717 -0.0000 0.0000 -0.0000 34.7710 5.1733 3.5337 40.1410 4.9815 -17.1235 10.4967 0.7064 23.3770 -11.6538 2.3703 -0.7601 0.0000 0.0000 0.0000 5.0835 3.6518 3.3136 4.1878 15.9489 6.6501 -2.6184 0.1575 -5.4263 0.0000 0.0000 -0.0000
-0.3772 40.1174 -5.1840 -2.6452 -5.9570 -2.0395 0.0000 0.0000 0.0000 0.1886 -2.0948 0.9153 -1.8619 -8.5206 2.3099 1.5763 -0.1798 -0.4202 0.0000 -0.0000 0.0000 0.0000 0.0000 0.0000 -0.3964 -0.6220 2.4406 4.4396 -1.4831 0.4401 -0.0000 0.0000 -0.0000 3.3851 -2.8333 0.2117 -0.0000 0.0000 -0.0000 -34.1900 -2.8365 2.5501 -44.7743 -15.0595 -16.9137 -10.7141 5.0953 49.1115 14.2183 -3.7428 -1.0900 -0.0000 0.0000 -0.0000 34.7283 5.1720 3.5337 40.1787 5.1069 -17.1402 10.4901 0.6480 23.3928 -11.9058 2.5070 -0.7900 0.0000 0.0000 0.0000 5.0419 3.6245 3.3902 4.2158 16.0741 6.6106 -2.6276 0.1581 -5.4107 0.0000 0.0000 -0.0000
-0.3681 40.1174 -5.1951 -2.6431 -6.0199 -2.0297 0.0000 0.0000 0.0000 0.1717 -2.1024 0.8663 -1.8481 -8.4417 2.3296 1.5661 -0.1791 -0.4074 0.0000 -0.0000 0.0000 0.0000 0.0000 0.0000 -0.3712 -0.6130 2.3079 4.3857 -1.4709 0.6153 -0.0000 0.0000 -0.0000 3.2960 -2.7150 0.2085 -0.0000 0.0000 -0.0000 -34.1183 -2.7765 2.5214 -44.8447 -15.2405 -17.1596 -10.5367 5.0850 49.5315 14.2800 -3.9823 -1.1226 -0.0000 0.0000 -0.0000 34.7454 5.1701 3.5337 40.1775 5.1667 -17.1132 10.5152 0.6778 23.1239 -12.2251 2.4087 -0.8023 0.0000 0.0000 0.0000 5.0134 3.6008 3.3746 4.2453 16.1547 6.6116 -2.6614 0.1602 -5.4157 0.0000 0.0000 -0.0000
-0.3583 40.1174 -5.2141 -2.6552 -6.0496 -2.0268 0.0000 0.0000 0.0000 0.1710 -2.0987 0.8217 -1.8405 -8.4014 2.3388 1.5998 -0.1814 -0.3786 0.0000 -0.0000 0.0000 0.0000 0.0000 0.0000 -0.3255 -0.5940 2.3170 4.3253 -1.4421 0.6374 -0.0000 0.0000 -0.0000 3.2582 -2.6954 0.2688 -0.0000 0.0000 -0.0000 -34.0614 -2.7368 2.5019 -44.9461 -15.3014 -17.2620 -10.4377 5.0776 49.8219 14.3487 -4.0641 -1.1378 -0.0000 0.0000 -0.0000 34.7816 5.1685 3.5337 40.1775 5.1266 -17.1471 10.5092 0.7548 22.9779 -12.3335 2.4197 -0.8107 0.0000 0.0000 0.0000 5.0052 3.5888 3.3345 4.2702 16.1933 6.6390 -2.6941 0.1623 -5.4342 0.0000 0.0000 -0.0000
-0.3488 40.1174 -5.2327 -2.6693 -6.0828 -2.0806 0.0000 0.0000 0.0000 0.1665 -2.1052 0.8504 -1.8280 -8.3636 2.3294 1.6216 -0.1829 -0.3416 0.0000 -0.0000 0.0000 0.0000 0.0000 0.0000 -0.2758 -0.5829 2.4177 4.2701 -1.4222 0.6427 -0.0000 0.0000 -0.0000 3.3154 -2.7080 0.2769 -0.0000 0.0000 -0.0000 -34.0612 -2.7209 2.4955 -44.9897 -15.2667 -17.2432 -10.4376 5.0800 49.7398 14.3413 -3.9169 -1.1200 -0.0000 0.0000 -0.0000 34.7692 5.1668 3.5337 40.2358 5.1302 -17.1937 10.4771 0.7719 23.1868 -12.3176 2.6239 -0.8298 0.0000 0.0000 0.0000 5.0091 3.5899 3.3725 4.2766 16.2202 6.6389 -2.6937 0.1623 -5.4398 0.0000 0.0000 -0.0000
-0.3382 40.1174 -5.2446 -2.6833 -6.1366 -2.1327 0.0000 0.0000 0.0000 0.1621 -2.1211 0.8873 -1.8055 -8.3045 2.3180 1.5778 -0.1802 -0.3199 0.0000 -0.0000 0.0000 0.0000 0.0000 0.0000 -0.2152 -0.6004 2.4288 4.1955 -1.4324 0.7571 -0.0000 0.0000 -0.0000 3.3745 -2.6403 0.2015 -0.0000 0.0000 -0.0000 -34.0481 -2.6862 2.4808 -45.0116 -15.2850 -17.2579 -10.4326 5.0863 49.5309 14.2885 -3.6925 -1.0897 -0.0000 0.0000 -0.0000 34.7472 5.1675 3.5359 40.3001 5.2333 -17.1208 10.4869 0.6972 23.5062 -12.4100 2.6550 -0.8393 0.0000 0.0000 0.0000 5.0089 3.5881 3.4335 4.2815 16.2607 6.6202 -2.6849 0.1617 -5.4331 0.0000 0.0000 -0.0000
-0.3240 40.1167 -5.2535 -2.7032 -6.1978 -2.1196 0.0000 0.0000 0.0000 0.1599 -2.1259 0.8516 -1.7841 -8.2340 2.3178 1.5538 -0.1787 -0.3085 0.0000 -0.0000 0.0000 0.0000 0.0000 0.0000 -0.1203 -0.6299 2.3639 4.0700 -1.4443 0.8326 -0.0000 0.0000 -0.0000 3.3997 -2.6162 0.1666 -0.0000 0.0000 -0.0000 -33.9867 -2.6390 2.4581 -45.0730 -15.3341 -17.3583 -10.3582 5.0845 49.6234 14.3533 -3.5959 -1.0836 -0.0000 0.0000 -0.0000 34.8189 5.1859 3.5488 40.2560 5.2993 -16.9730 10.5480 0.5926 23.5614 -12.5281 2.3241 -0.8143 0.0000 0.0000 0.0000 4.9951 3.5700 3.4125 4.3134 16.3256 6.6347 -2.7013 0.1628 -5.4410 0.0000 0.0000 -0.0000
